<?xml version="1.0" encoding="UTF-8"?>
<svg version="1.1" xmlns="http://www.w3.org/2000/svg" width="2560" height="798">
<path d="M0 0 C3.04670025 0.00461707 6.09299987 -0.00225461 9.13964844 -0.02050781 C34.86151845 -0.17292526 60.12038759 1.19646624 85.46362305 6.00317383 C86.13315002 6.12784027 86.802677 6.25250671 87.49249268 6.38095093 C159.53857604 19.86796263 229.20241069 52.33574846 284.02612305 101.31567383 C284.90397461 102.09426758 285.78182617 102.87286133 286.6862793 103.67504883 C289.14647985 105.87402365 291.58628116 108.09415375 294.02612305 110.31567383 C295.45891602 111.5918457 295.45891602 111.5918457 296.9206543 112.89379883 C304.09533389 119.31660259 310.61915772 126.13328153 317.02612305 133.31567383 C318.16500977 134.54737305 318.16500977 134.54737305 319.3269043 135.80395508 C340.30657107 158.57229681 357.5876339 185.01015594 372.02612305 212.31567383 C372.689104 213.56574219 372.689104 213.56574219 373.36547852 214.84106445 C392.49136771 251.20537489 404.95400395 290.36465436 411.83862305 330.81567383 C412.03359375 331.95818604 412.22856445 333.10069824 412.42944336 334.27783203 C415.59237285 353.95130922 416.40070021 373.47181225 416.33862305 393.37817383 C416.33588882 395.19909042 416.33588882 395.19909042 416.33309937 397.05679321 C416.28853865 414.68062818 415.86703153 431.89328287 413.02612305 449.31567383 C412.8545166 450.43683594 412.68291016 451.55799805 412.50610352 452.71313477 C402.07781981 520.12886694 374.30135047 582.89324713 332.02612305 636.31567383 C331.30038086 637.23606445 330.57463867 638.15645508 329.8269043 639.10473633 C324.36649468 645.90819104 318.52565846 652.29689677 312.56567383 658.65844727 C311.05627331 660.28321902 309.56760341 661.92451245 308.0847168 663.57348633 C297.6221909 675.17020866 286.28841715 685.63738806 274.02612305 695.31567383 C272.74605483 696.34937904 271.46611661 697.38324524 270.1862793 698.41723633 C245.98943096 717.78195206 219.62252027 733.3688366 192.02612305 747.31567383 C191.2789502 747.6946582 190.53177734 748.07364258 189.76196289 748.46411133 C150.91004226 767.98639872 107.92852255 779.35389728 65.02612305 785.31567383 C63.8659668 785.48083496 62.70581055 785.64599609 61.51049805 785.81616211 C-43.99533011 800.11326634 -155.05437938 774.34615081 -256.09814453 702.87719727 C-262.46112777 698.0281625 -268.53045974 692.86091766 -274.53588867 687.57885742 C-275.73937902 686.52166573 -276.95133374 685.47412012 -278.1652832 684.42895508 C-280.11963765 682.74388538 -282.04993198 681.03540118 -283.97387695 679.31567383 C-284.92391602 678.47004883 -285.87395508 677.62442383 -286.8527832 676.75317383 C-310.20448553 655.72912163 -330.20958394 630.84621944 -346.97387695 604.31567383 C-347.33078613 603.75203125 -347.68769531 603.18838867 -348.05541992 602.60766602 C-376.03449774 558.0299652 -394.3920939 508.73335717 -403.22387695 456.87817383 C-403.37501953 455.99307129 -403.52616211 455.10796875 -403.68188477 454.19604492 C-404.15735017 451.24075374 -404.57347507 448.28209682 -404.97387695 445.31567383 C-405.15265381 444.04844482 -405.33143066 442.78121582 -405.515625 441.47558594 C-407.34383546 427.35194599 -407.31495575 413.18388121 -407.28955078 398.96679688 C-407.28493561 396.17008307 -407.29179584 393.37380588 -407.31005859 390.57714844 C-407.46226907 367.01253382 -405.89896283 343.96595286 -401.22387695 320.81567383 C-400.96711182 319.52508057 -400.71034668 318.2344873 -400.44580078 316.90478516 C-389.31860458 261.92133661 -366.4276024 209.40289969 -332.97387695 164.31567383 C-332.54123535 163.73140625 -332.10859375 163.14713867 -331.6628418 162.54516602 C-319.93975031 146.80929139 -306.94300108 132.09719421 -293.07250977 118.22900391 C-291.60181286 116.75611411 -290.13934161 115.27537117 -288.67700195 113.79418945 C-282.44423824 107.52498521 -275.89533354 101.82066934 -268.97387695 96.31567383 C-267.94630174 95.45231554 -266.92288753 94.58392461 -265.9074707 93.70629883 C-210.12123961 45.86458578 -139.02440669 16.3731389 -66.97387695 4.50317383 C-65.79543213 4.30804199 -64.6169873 4.11291016 -63.40283203 3.91186523 C-59.59981486 3.31987259 -55.7927275 2.7924279 -51.97387695 2.31567383 C-51.23388458 2.22244843 -50.49389221 2.12922302 -49.73147583 2.03317261 C-33.18717724 0.03979396 -16.6364879 -0.02724705 0 0 Z M-39.97387695 132.31567383 C-40.93342285 132.49259766 -41.89296875 132.66952148 -42.8815918 132.85180664 C-89.80602722 141.75829676 -133.91929974 162.67427404 -168.97387695 195.31567383 C-170.30325328 196.46609565 -171.63645304 197.61211771 -172.97387695 198.75317383 C-181.52007613 206.23324756 -188.92192306 214.43304817 -195.97387695 223.31567383 C-196.60680664 224.06977539 -197.23973633 224.82387695 -197.8918457 225.60083008 C-243.25582714 280.13114178 -258.75152582 351.3408031 -252.66137695 420.74145508 C-246.31443634 485.2403501 -214.07157097 549.00427789 -163.91137695 590.62817383 C-162.48375153 591.76506093 -161.05559538 592.90134768 -159.6184082 594.02612305 C-158.44752082 594.94426841 -157.28133912 595.86842837 -156.1184082 596.79663086 C-145.56761624 605.2097992 -134.71729824 612.66419232 -122.97387695 619.31567383 C-122.15935059 619.7771582 -121.34482422 620.23864258 -120.50561523 620.71411133 C-93.66519764 635.72856939 -64.39183596 645.71408402 -33.97387695 650.31567383 C-32.28693726 650.58166382 -32.28693726 650.58166382 -30.56591797 650.85302734 C-19.01216887 652.50440284 -7.56908283 652.67345964 4.08862305 652.62817383 C5.08568268 652.62601868 6.08274231 652.62386353 7.11001587 652.62164307 C21.61132281 652.57131302 35.77282442 652.21571837 50.02612305 649.31567383 C51.52320801 649.02563477 51.52320801 649.02563477 53.05053711 648.72973633 C92.78938084 640.87649731 130.1833295 624.45722276 162.02612305 599.31567383 C163.25975586 598.37014648 163.25975586 598.37014648 164.51831055 597.40551758 C180.11082996 585.2752349 195.02992503 571.01664691 207.02612305 555.31567383 C207.54287598 554.64826172 208.05962891 553.98084961 208.59204102 553.29321289 C217.43236477 541.82727514 225.15914158 530.05977618 232.02612305 517.31567383 C232.38367676 516.66099121 232.74123047 516.00630859 233.10961914 515.33178711 C266.55644228 453.5678256 271.78239264 378.06740446 252.21362305 311.12817383 C249.1095022 300.9435038 245.23240535 291.09052333 241.02612305 281.31567383 C240.55867676 280.22391846 240.55867676 280.22391846 240.08178711 279.11010742 C224.42035577 243.02252356 198.23357046 209.3249071 167.02612305 185.31567383 C165.59333008 184.15745117 165.59333008 184.15745117 164.1315918 182.97583008 C126.92613977 153.35186639 81.9348286 136.3474051 35.02612305 130.31567383 C34.28442871 130.21254883 33.54273438 130.10942383 32.77856445 130.00317383 C23.70811918 128.89822509 14.52411773 129.07171365 5.40112305 129.06567383 C4.02902679 129.06466171 4.02902679 129.06466171 2.62921143 129.06362915 C-11.76420674 129.08047442 -25.79163685 129.66435648 -39.97387695 132.31567383 Z " fill="#4A2389" transform="translate(406.973876953125,-0.315673828125)"/>
<path d="M0 0 C1.29873347 1.03479076 2.59826787 2.06857679 3.8984375 3.1015625 C16.17715628 12.90337732 27.53030928 23.44662869 38.6875 34.5 C39.56688232 35.36625 40.44626465 36.2325 41.35229492 37.125 C47.3373731 43.10276352 52.73922667 49.38104685 58 56 C59.00140155 57.21950897 60.00495685 58.43725623 61.01171875 59.65234375 C123.86805192 136.43072765 151.8044975 235.43684683 145.17529297 339.61767578 C144.59425532 345.43509038 143.85779483 351.21720751 143 357 C142.82839355 358.15725586 142.65678711 359.31451172 142.47998047 360.50683594 C128.26157142 452.8311971 80.87776867 542.51343313 7 601 C6.3915625 601.49161621 5.783125 601.98323242 5.15625 602.48974609 C-12.13989258 616.46263081 -30.63209528 629.06217708 -50 640 C-50.81114258 640.45826172 -51.62228516 640.91652344 -52.45800781 641.38867188 C-117.52871914 677.92709978 -190.1544778 697.20234216 -264.8125 697.25 C-266.25172821 697.25101212 -266.25172821 697.25101212 -267.72003174 697.25204468 C-360.26172076 697.14962261 -453.78323343 667.22395861 -527 610 C-528.20002646 609.07618038 -529.40054238 608.15299619 -530.6015625 607.23046875 C-545.44306783 595.76956261 -561.08976228 583.60392665 -573.14453125 569.16796875 C-575.09547327 566.88844702 -577.13781346 564.70818415 -579.19677734 562.52636719 C-585.93872264 555.35841403 -592.10001722 547.87194468 -598 540 C-598.51175781 539.31808594 -599.02351563 538.63617187 -599.55078125 537.93359375 C-612.08726333 521.12677714 -623.19798708 503.53347292 -633 485 C-633.43666992 484.17725586 -633.87333984 483.35451172 -634.32324219 482.50683594 C-658.61501947 436.35420796 -673.28169879 385.04508436 -677 333 C-677.05639648 332.23252441 -677.11279297 331.46504883 -677.17089844 330.67431641 C-683.29438341 243.7679335 -659.96331131 154.61340446 -610 83 C-609.60635254 82.42765625 -609.21270508 81.8553125 -608.80712891 81.265625 C-602.50846204 72.11516908 -595.69249783 63.44674263 -588.58642578 54.91113281 C-587.13803751 53.1662908 -585.70638579 51.4091182 -584.27734375 49.6484375 C-577.91989912 41.92183918 -570.98795404 34.77876988 -563.9375 27.6875 C-563.02750244 26.7682373 -562.11750488 25.84897461 -561.17993164 24.90185547 C-555.09169232 18.84153632 -548.71299506 13.35238415 -542 8 C-540.69449598 6.91556318 -539.39202719 5.82745336 -538.09375 4.734375 C-528.17221737 -3.53922951 -517.76885975 -10.87591535 -507 -18 C-506.28730957 -18.47679199 -505.57461914 -18.95358398 -504.84033203 -19.44482422 C-480.70818598 -35.57998483 -455.0340275 -49.38939177 -428 -60 C-427.00935547 -60.3904248 -426.01871094 -60.78084961 -424.99804688 -61.18310547 C-333.83311873 -96.79527462 -233.43656798 -100.33910552 0 0 Z M-309 41 C-310.051875 41.19335938 -311.10375 41.38671875 -312.1875 41.5859375 C-358.79907239 50.40728648 -403.44779461 71.16946807 -438 104 C-439.34798324 105.17380563 -440.70178771 106.34097432 -442.0625 107.5 C-450.59091128 114.94930618 -457.98905187 123.12804894 -465 132 C-465.87257203 133.07123058 -466.74631172 134.14151088 -467.62109375 135.2109375 C-496.55374955 170.85659054 -514.4888673 214.69372204 -521 260 C-521.11714355 260.81227051 -521.23428711 261.62454102 -521.35498047 262.46142578 C-528.55525327 315.43104043 -520.11277918 372.80317281 -495 420.11035156 C-493.98332782 422.03150455 -492.99018401 423.96351738 -492 425.8984375 C-476.46956561 455.99150061 -452.89528374 484.39089205 -426 505 C-425.04609375 505.77085937 -424.0921875 506.54171875 -423.109375 507.3359375 C-388.67227563 534.76448147 -346.43904643 552.42802705 -303 559 C-301.31414795 559.26598999 -301.31414795 559.26598999 -299.59423828 559.53735352 C-288.97806758 561.05539702 -278.49118443 561.34006075 -267.77539062 561.31567383 C-264.89934859 561.31252664 -262.02435253 561.33602754 -259.1484375 561.36132812 C-245.88114096 561.40661069 -233.08191351 560.17638862 -220 558 C-218.86240234 557.81187744 -217.72480469 557.62375488 -216.55273438 557.42993164 C-213.95766165 556.96350146 -211.38667465 556.44481431 -208.8125 555.875 C-207.88655029 555.67036133 -206.96060059 555.46572266 -206.0065918 555.25488281 C-186.59724397 550.74175475 -167.85373014 543.8069635 -150 535 C-149.27167969 534.64470215 -148.54335937 534.2894043 -147.79296875 533.92333984 C-131.36398056 525.83095309 -116.18283032 515.56237525 -102 504 C-101.44924805 503.55221191 -100.89849609 503.10442383 -100.33105469 502.64306641 C-86.96942277 491.69109631 -74.55860542 479.70104751 -64 466 C-62.98514935 464.72464385 -61.9694622 463.44995307 -60.953125 462.17578125 C-53.11407422 452.25446442 -46.21815845 442.00820232 -40 431 C-39.50612793 430.12601563 -39.01225586 429.25203125 -38.50341797 428.3515625 C-4.53081222 367.4574726 3.2400991 292.47633234 -15.25 225.375 C-29.8442739 174.29898574 -59.60370718 126.61729389 -102 94 C-103.43279297 92.84177734 -103.43279297 92.84177734 -104.89453125 91.66015625 C-137.14249227 65.98347785 -175.62373237 49.55554129 -215.9375 41.6875 C-217.06889404 41.46646606 -217.06889404 41.46646606 -218.22314453 41.2409668 C-233.47774137 38.48195039 -248.65360863 37.62003072 -264.125 37.6875 C-265.02107971 37.68965515 -265.91715942 37.6918103 -266.84039307 37.69403076 C-281.08081965 37.74878824 -294.97390018 38.35573528 -309 41 Z " fill="#4A2389" transform="translate(2413,91)"/>
<path d="M0 0 C111.54 0 223.08 0 338 0 C338 41.58 338 83.16 338 126 C311.6 126 285.2 126 258 126 C260.805 132.1875 263.61 138.375 266.5 144.75 C274.69231686 162.84613617 282.79921755 180.97829603 290.84570312 199.13964844 C294.95302217 208.40853337 299.0706907 217.67282743 303.1875 226.9375 C303.83366776 228.39187973 303.83366776 228.39187973 304.4928894 229.87564087 C309.96850373 242.19896446 315.46256766 254.51358517 320.98901367 266.81420898 C326.46772498 279.01967112 331.89208999 291.24923552 337.32177734 303.4765625 C342.36216504 314.82632522 347.41048806 326.17216241 352.5 337.5 C358.47933839 350.80834371 364.40053966 364.14229396 370.32177734 377.4765625 C375.36216538 388.82632597 380.41061879 400.17210317 385.5 411.5 C393.06621604 428.34493495 400.55323156 445.22505498 408.04768372 462.102005 C411.09716349 468.96878207 414.14940732 475.83432538 417.203125 482.69921875 C427.17386538 505.11594375 437.11524821 527.54521478 447 550 C453.77356954 535.06283375 460.44037924 520.08645474 466.875 505 C473.33729706 489.84940683 479.87438651 474.73219437 486.4375 459.625 C488.42322936 455.05340812 490.40888557 450.48178447 492.39453125 445.91015625 C493.11707596 444.24674446 493.11707596 444.24674446 493.85421753 442.54972839 C498.12113297 432.72496453 502.37602639 422.89503446 506.625 413.0625 C507.89842572 410.11588033 509.17186074 407.16926467 510.4453125 404.22265625 C510.74665604 403.525354 511.04799957 402.82805176 511.35847473 402.10961914 C514.4007151 395.07093954 517.44997525 388.03530917 520.5 381 C525.33972661 369.83609283 530.17155153 358.66878913 535 347.5 C539.82844849 336.33121082 544.66031385 325.16392474 549.5 314 C554.27640589 302.98157368 559.04642625 291.96039951 563.8125 280.9375 C564.14682037 280.16429413 564.48114075 279.39108826 564.82559204 278.5944519 C567.21722603 273.06303913 569.60863736 267.53153009 572 262 C574.72901575 255.68743474 577.45812666 249.37491066 580.1875 243.0625 C580.68934311 241.90184525 580.68934311 241.90184525 581.20132446 240.71774292 C586.15086961 229.2710121 591.10686646 217.82709586 596.06713867 206.38500977 C600.04091057 197.21706806 604.00821118 188.04633933 607.97335815 178.87466431 C618.55871443 154.39030511 618.55871443 154.39030511 623.57739258 142.79931641 C624.14660292 141.48446153 624.71561631 140.16952138 625.28442383 138.85449219 C626.06278054 137.05510778 626.84191568 135.25606015 627.62109375 133.45703125 C628.0586499 132.44616455 628.49620605 131.43529785 628.94702148 130.39379883 C629.59793186 128.91404547 630.27704021 127.44591959 631 126 C598.33 126 565.66 126 532 126 C532 84.42 532 42.84 532 0 C624.4 0 716.8 0 812 0 C812 82.36853903 812 82.36853903 797.34716797 106.015625 C793.58439395 112.20947272 790.86568775 118.89779221 788.03076172 125.55160522 C786.42250107 129.30689992 784.75770432 133.03691516 783.09765625 136.76953125 C782.76621613 137.51769608 782.434776 138.2658609 782.09329224 139.03669739 C778.10275635 148.04267761 774.04942294 157.02038952 770 166 C764.31526377 178.60797609 758.66570115 191.23058318 753.0625 203.875 C746.87234228 217.84317152 740.59232738 231.76924599 734.28302002 245.68395996 C728.78603811 257.809761 723.33175122 269.95315249 717.9375 282.125 C712.26955152 294.91417597 706.55852533 307.68320226 700.8125 320.4375 C700.43121948 321.28384003 700.04993896 322.13018005 699.65710449 323.00216675 C698.15517492 326.33584746 696.65317719 329.66949744 695.15100098 333.00306702 C690.26599082 343.84555259 685.40550403 354.69901031 680.54443359 365.55224609 C677.59147152 372.14436281 674.63608826 378.73539439 671.68109131 385.32659912 C668.7617193 391.83840787 665.84283031 398.35043153 662.92578125 404.86328125 C658.20683524 415.39726825 653.48432752 425.92955688 648.7421875 436.453125 C647.22387121 439.82287742 645.70562879 443.1926631 644.1875 446.5625 C643.80428589 447.41311005 643.42107178 448.26372009 643.02624512 449.1401062 C637.33949521 461.76621184 631.69934039 474.41221066 626.0887146 487.07229614 C620.22097769 500.30695506 614.26144106 513.49899147 608.28302002 526.68395996 C602.78603811 538.809761 597.33175122 550.95315249 591.9375 563.125 C586.26955152 575.91417597 580.55852533 588.68320226 574.8125 601.4375 C574.24057922 602.70701004 574.24057922 602.70701004 573.65710449 604.00216675 C572.15517492 607.33584746 570.65317719 610.66949744 569.15100098 614.00306702 C564.26599082 624.84555259 559.40550403 635.69901031 554.54443359 646.55224609 C551.86425308 652.53541226 549.18199322 658.51764623 546.5 664.5 C545.41665733 666.91666248 544.33332398 669.33332914 543.25 671.75 C536.75 686.25 530.25 700.75 523.75 715.25 C523.21310547 716.44778076 522.67621094 717.64556152 522.12304688 718.87963867 C521.0465047 721.28096898 519.96968465 723.68217473 518.89257812 726.08325195 C516.37580274 731.69451707 513.86166335 737.30688824 511.35778809 742.92391968 C510.18781296 745.54809052 509.01620614 748.17153142 507.84448242 750.79492188 C507.02820267 752.6242947 506.21425468 754.45470743 505.40039062 756.28515625 C502.4257379 762.94289373 499.33072609 769.51263721 496 776 C486.61493894 775.43838223 477.5070186 773.73360061 468.3125 771.875 C467.54365479 771.720383 466.77480957 771.56576599 465.98266602 771.40646362 C433.07922776 764.74367935 402.08143546 755.40829579 378 731 C376.71029297 729.72576172 376.71029297 729.72576172 375.39453125 728.42578125 C363.56000231 716.13969635 355.1048467 701.0142849 347.10986328 686.06396484 C346.11078486 684.20602182 345.08622983 682.36183254 344.05859375 680.51953125 C338.11008424 669.72776765 333.04834678 658.51996907 327.90979004 647.32658386 C325.45365121 641.97821706 322.97964684 636.63828553 320.5 631.30078125 C312.60546731 614.30408423 304.74193597 597.29414233 296.96520996 580.24319458 C291.65689436 568.60451803 286.30606221 556.98600033 280.9375 545.375 C275.41728149 533.43504773 269.93012533 521.48119579 264.5 509.5 C257.96151844 495.0743804 251.33318913 480.69121218 244.68840027 466.31430054 C244.31040787 465.49644073 243.93241547 464.67858093 243.54296875 463.8359375 C243.16477493 463.01767487 242.78658112 462.19941223 242.39692688 461.35635376 C238.39797851 452.70163164 234.41610539 444.03908888 230.4375 435.375 C230.08916107 434.61644714 229.74082214 433.85789429 229.38192749 433.07635498 C227.97662922 430.01600712 226.57139955 426.95562778 225.16633606 423.89517212 C222.68552168 418.49182589 220.20262008 413.08944215 217.71875 407.6875 C210.4859234 391.95604548 203.26834901 376.21784905 196.07736206 360.46722412 C190.74830676 348.79753642 185.38178159 337.14545538 180 325.5 C174.28651442 313.13678157 168.59392654 300.76443326 162.9375 288.375 C157.4937294 276.45160985 152.03673673 264.53443661 146.5625 252.625 C146.21034424 251.85881348 145.85818848 251.09262695 145.49536133 250.30322266 C142.99739563 244.86859067 140.4987804 239.43425744 138 234 C126.97047305 210.01338285 115.97032164 186.01377494 105 162 C97.08 144.675 97.08 144.675 89 127 C59.63 126.67 30.26 126.34 0 126 C0 84.42 0 42.84 0 0 Z " fill="#4A2389" transform="translate(864,22)"/>
</svg>
